name rise30.6535peak61.5555fall82.9339.mot
datacolumns 19
datarows 21
range 22.00659400000000 22.03991100000000
endheader
time	ground_force1_vx	ground_force1_vy	ground_force1_vz	ground_force1_px	ground_force1_py	ground_force1_pz	ground_force2_vx	ground_force2_vy	ground_force2_vz	ground_force2_px	ground_force2_py	ground_force2_pz	ground_torque1_x	ground_torque1_y	ground_torque1_z	ground_torque2_x	ground_torque2_y	ground_torque2_z	
22.00659400000000	14.27455800000000	722.73267699999997	41.72243300000000	0.24947800000000	0.00000000000000	0.07573900000000	0.00000000000000	0.00000000000000	0.00000000000000	0.00000000000000	0.00000000000000	0.00000000000000	0.00000000000000	19.29096000000000	0.00000000000000	0.00000000000000	0.00000000000000	0.00000000000000	
22.00824500000000	13.84538000000000	722.85824000000002	41.61295900000000	0.24872800000000	0.00000000000000	0.07564400000000	0.00000000000000	0.00000000000000	0.00000000000000	0.00000000000000	0.00000000000000	0.00000000000000	0.00000000000000	19.26819500000000	0.00000000000000	0.00000000000000	0.00000000000000	0.00000000000000	
22.00990800000000	13.40659900000000	722.99067400000001	41.50585800000000	0.24798000000000	0.00000000000000	0.07555000000000	0.00000000000000	0.00000000000000	0.00000000000000	0.00000000000000	0.00000000000000	0.00000000000000	0.00000000000000	19.24899500000000	0.00000000000000	0.00000000000000	0.00000000000000	0.00000000000000	
22.01158300000000	12.95810600000000	723.13064799999995	41.40118200000000	0.24723400000000	0.00000000000000	0.07545600000000	0.00000000000000	0.00000000000000	0.00000000000000	0.00000000000000	0.00000000000000	0.00000000000000	0.00000000000000	19.23332000000000	0.00000000000000	0.00000000000000	0.00000000000000	0.00000000000000	
22.01325000000000	12.49981500000000	723.27891999999997	41.29897700000000	0.24648800000000	0.00000000000000	0.07536400000000	0.00000000000000	0.00000000000000	0.00000000000000	0.00000000000000	0.00000000000000	0.00000000000000	0.00000000000000	19.22111900000000	0.00000000000000	0.00000000000000	0.00000000000000	0.00000000000000	
22.01491200000000	12.03166500000000	723.43632900000000	41.19928600000000	0.24574200000000	0.00000000000000	0.07527300000000	0.00000000000000	0.00000000000000	0.00000000000000	0.00000000000000	0.00000000000000	0.00000000000000	0.00000000000000	19.21233900000000	0.00000000000000	0.00000000000000	0.00000000000000	0.00000000000000	
22.01657700000000	11.55362500000000	723.60379699999999	41.10214600000000	0.24499600000000	0.00000000000000	0.07518300000000	0.00000000000000	0.00000000000000	0.00000000000000	0.00000000000000	0.00000000000000	0.00000000000000	0.00000000000000	19.20692000000000	0.00000000000000	0.00000000000000	0.00000000000000	0.00000000000000	
22.01824800000000	11.06568800000000	723.78232200000002	41.00759300000000	0.24424700000000	0.00000000000000	0.07509400000000	0.00000000000000	0.00000000000000	0.00000000000000	0.00000000000000	0.00000000000000	0.00000000000000	0.00000000000000	19.20479600000000	0.00000000000000	0.00000000000000	0.00000000000000	0.00000000000000	
22.01990800000000	10.56787500000000	723.97297600000002	40.91565700000000	0.24349700000000	0.00000000000000	0.07500700000000	0.00000000000000	0.00000000000000	0.00000000000000	0.00000000000000	0.00000000000000	0.00000000000000	0.00000000000000	19.20589700000000	0.00000000000000	0.00000000000000	0.00000000000000	0.00000000000000	
22.02158200000000	10.06023700000000	724.17689800000005	40.82636400000000	0.24274200000000	0.00000000000000	0.07492200000000	0.00000000000000	0.00000000000000	0.00000000000000	0.00000000000000	0.00000000000000	0.00000000000000	0.00000000000000	19.21014500000000	0.00000000000000	0.00000000000000	0.00000000000000	0.00000000000000	
22.02324900000000	9.54285100000000	724.39529200000004	40.73973900000000	0.24198400000000	0.00000000000000	0.07483800000000	0.00000000000000	0.00000000000000	0.00000000000000	0.00000000000000	0.00000000000000	0.00000000000000	0.00000000000000	19.21745900000000	0.00000000000000	0.00000000000000	0.00000000000000	0.00000000000000	
22.02491500000000	9.01582300000000	724.62942199999998	40.65580300000000	0.24122100000000	0.00000000000000	0.07475600000000	0.00000000000000	0.00000000000000	0.00000000000000	0.00000000000000	0.00000000000000	0.00000000000000	0.00000000000000	19.22775400000000	0.00000000000000	0.00000000000000	0.00000000000000	0.00000000000000	
22.02659500000000	8.47928800000000	724.88060099999996	40.57457300000000	0.24045300000000	0.00000000000000	0.07467500000000	0.00000000000000	0.00000000000000	0.00000000000000	0.00000000000000	0.00000000000000	0.00000000000000	0.00000000000000	19.24093900000000	0.00000000000000	0.00000000000000	0.00000000000000	0.00000000000000	
22.02824400000000	7.93341000000000	725.15019299999994	40.49606600000000	0.23967800000000	0.00000000000000	0.07459700000000	0.00000000000000	0.00000000000000	0.00000000000000	0.00000000000000	0.00000000000000	0.00000000000000	0.00000000000000	19.25691900000000	0.00000000000000	0.00000000000000	0.00000000000000	0.00000000000000	
22.02991400000000	7.37838300000000	725.43959900000004	40.42029500000000	0.23889600000000	0.00000000000000	0.07452000000000	0.00000000000000	0.00000000000000	0.00000000000000	0.00000000000000	0.00000000000000	0.00000000000000	0.00000000000000	19.27559700000000	0.00000000000000	0.00000000000000	0.00000000000000	0.00000000000000	
22.03158400000000	6.81442700000000	725.75025700000003	40.34727600000000	0.23810700000000	0.00000000000000	0.07444600000000	0.00000000000000	0.00000000000000	0.00000000000000	0.00000000000000	0.00000000000000	0.00000000000000	0.00000000000000	19.29687100000000	0.00000000000000	0.00000000000000	0.00000000000000	0.00000000000000	
22.03324600000000	6.24179300000000	726.08362999999997	40.27701800000000	0.23731000000000	0.00000000000000	0.07437300000000	0.00000000000000	0.00000000000000	0.00000000000000	0.00000000000000	0.00000000000000	0.00000000000000	0.00000000000000	19.32063700000000	0.00000000000000	0.00000000000000	0.00000000000000	0.00000000000000	
22.03490800000000	5.66075900000000	726.44120099999998	40.20953500000000	0.23650400000000	0.00000000000000	0.07430300000000	0.00000000000000	0.00000000000000	0.00000000000000	0.00000000000000	0.00000000000000	0.00000000000000	0.00000000000000	19.34678600000000	0.00000000000000	0.00000000000000	0.00000000000000	0.00000000000000	
22.03658200000000	5.07163300000000	726.82446500000003	40.14483900000000	0.23568900000000	0.00000000000000	0.07423400000000	0.00000000000000	0.00000000000000	0.00000000000000	0.00000000000000	0.00000000000000	0.00000000000000	0.00000000000000	19.37520900000000	0.00000000000000	0.00000000000000	0.00000000000000	0.00000000000000	
22.03824200000000	4.47474900000000	727.23492199999998	40.08294300000000	0.23486400000000	0.00000000000000	0.07416800000000	0.00000000000000	0.00000000000000	0.00000000000000	0.00000000000000	0.00000000000000	0.00000000000000	0.00000000000000	19.40579400000000	0.00000000000000	0.00000000000000	0.00000000000000	0.00000000000000	
22.03991100000000	3.87046800000000	727.67406900000003	40.02386000000000	0.23403000000000	0.00000000000000	0.07410500000000	0.00000000000000	0.00000000000000	0.00000000000000	0.00000000000000	0.00000000000000	0.00000000000000	0.00000000000000	19.43842600000000	0.00000000000000	0.00000000000000	0.00000000000000	0.00000000000000	
